<svg width="20" height="20" viewBox="0 0 20 20" fill="none" xmlns="http://www.w3.org/2000/svg">
<g clip-path="url(#clip0_382_726)">
<path d="M8.23332 8.23328C7.98769 8.46215 7.79069 8.73815 7.65405 9.04482C7.51741 9.35148 7.44393 9.68252 7.43801 10.0182C7.43209 10.3539 7.49384 10.6873 7.61957 10.9986C7.74531 11.3099 7.93246 11.5927 8.16986 11.8301C8.40725 12.0675 8.69003 12.2546 9.00132 12.3804C9.31262 12.5061 9.64605 12.5678 9.98173 12.5619C10.3174 12.556 10.6484 12.4825 10.9551 12.3459C11.2618 12.2092 11.5378 12.0122 11.7666 11.7666" stroke="#9CA3AF" stroke-width="2" stroke-linecap="round" stroke-linejoin="round"/>
<path d="M8.94165 4.23329C9.29274 4.18955 9.64618 4.16729 9.99998 4.16663C15.8333 4.16663 18.3333 9.99996 18.3333 9.99996C17.9607 10.7976 17.4935 11.5474 16.9417 12.2333" stroke="#9CA3AF" stroke-width="2" stroke-linecap="round" stroke-linejoin="round"/>
<path d="M5.50835 5.5083C3.85106 6.63715 2.52491 8.18768 1.66669 9.99997C1.66669 9.99997 4.16669 15.8333 10 15.8333C11.5966 15.8376 13.159 15.3709 14.4917 14.4916" stroke="#9CA3AF" stroke-width="2" stroke-linecap="round" stroke-linejoin="round"/>
<path d="M1.66669 1.66663L18.3334 18.3333" stroke="#9CA3AF" stroke-width="2" stroke-linecap="round" stroke-linejoin="round"/>
</g>
<defs>
<clipPath id="clip0_382_726">
<rect width="20" height="20" fill="white"/>
</clipPath>
</defs>
</svg>
