<svg width="40" height="40" viewBox="0 0 40 40" fill="none" xmlns="http://www.w3.org/2000/svg">
<g clip-path="url(#clip0_191_2183)">
<path d="M20.4057 40C20.0726 40 19.7531 39.8677 19.5176 39.6322C19.282 39.3967 19.1497 39.0772 19.1497 38.7441C19.1497 38.411 19.282 38.0915 19.5176 37.856C19.7531 37.6205 20.0726 37.4881 20.4057 37.4881C20.7388 37.4881 21.0582 37.6205 21.2938 37.856C21.5293 38.0915 21.6616 38.411 21.6616 38.7441C21.6616 39.0772 21.5293 39.3967 21.2938 39.6322C21.0582 39.8677 20.7388 40 20.4057 40ZM29.3526 37.2341C29.4917 37.2458 29.6317 37.2285 29.7638 37.1832C29.8959 37.138 30.0171 37.0658 30.1199 36.9713C30.2226 36.8768 30.3047 36.762 30.3608 36.6342C30.4169 36.5064 30.4459 36.3683 30.4459 36.2287C30.4459 36.0891 30.4169 35.951 30.3608 35.8231C30.3047 35.6953 30.2226 35.5805 30.1199 35.486C30.0171 35.3915 29.8959 35.3193 29.7638 35.2741C29.6317 35.2289 29.4917 35.2115 29.3526 35.2232C29.1004 35.2443 28.8655 35.3594 28.6942 35.5456C28.5229 35.7319 28.4279 35.9757 28.4279 36.2287C28.4279 36.4817 28.5229 36.7254 28.6942 36.9117C28.8655 37.0979 29.1004 37.213 29.3526 37.2341ZM36.0345 30.9332C36.2835 30.9346 36.5273 30.8619 36.7349 30.7245C36.9426 30.587 37.1046 30.3909 37.2006 30.1611C37.2965 29.9314 37.322 29.6782 37.2737 29.434C37.2255 29.1897 37.1057 28.9652 36.9297 28.7892C36.7536 28.6131 36.5291 28.4933 36.2849 28.4451C36.0406 28.3969 35.7875 28.4223 35.5577 28.5183C35.3279 28.6142 35.1318 28.7763 34.9944 28.9839C34.8569 29.1915 34.7842 29.4353 34.7856 29.6843C34.7837 29.8488 34.8147 30.0121 34.8768 30.1645C34.9389 30.3168 35.0309 30.4553 35.1472 30.5716C35.2636 30.688 35.402 30.7799 35.5544 30.842C35.7067 30.9041 35.87 30.9351 36.0345 30.9332ZM38.4124 22.0992C38.6189 22.1133 38.8261 22.0849 39.0211 22.0156C39.2161 21.9463 39.3948 21.8376 39.5461 21.6963C39.6974 21.5551 39.818 21.3842 39.9005 21.1943C39.9829 21.0045 40.0255 20.7997 40.0255 20.5927C40.0255 20.3858 39.9829 20.181 39.9005 19.9911C39.818 19.8013 39.6974 19.6304 39.5461 19.4892C39.3948 19.3479 39.2161 19.2392 39.0211 19.1699C38.8261 19.1006 38.6189 19.0722 38.4124 19.0863C38.0307 19.1124 37.6731 19.2825 37.4119 19.5622C37.1508 19.8418 37.0056 20.2101 37.0056 20.5927C37.0056 20.9754 37.1508 21.3437 37.4119 21.6233C37.6731 21.903 38.0307 22.073 38.4124 22.0992ZM36.4155 13.2228C36.8834 13.2228 37.3321 13.037 37.6629 12.7062C37.9937 12.3754 38.1795 11.9267 38.1795 11.4589C38.1795 10.991 37.9937 10.5423 37.6629 10.2115C37.3321 9.88073 36.8834 9.69488 36.4155 9.69488C35.9477 9.69488 35.499 9.88073 35.1682 10.2115C34.8374 10.5423 34.6516 10.991 34.6516 11.4589C34.6516 11.9267 34.8374 12.3754 35.1682 12.7062C35.499 13.037 35.9477 13.2228 36.4155 13.2228ZM29.3596 6.87251C29.6333 6.88874 29.9073 6.84886 30.165 6.75531C30.4226 6.66177 30.6584 6.51654 30.8579 6.32854C31.0574 6.14054 31.2163 5.91375 31.325 5.66209C31.4336 5.41042 31.4896 5.13921 31.4896 4.8651C31.4896 4.59099 31.4336 4.31978 31.325 4.06812C31.2163 3.81646 31.0574 3.58966 30.8579 3.40166C30.6584 3.21367 30.4226 3.06844 30.165 2.97489C29.9073 2.88135 29.6333 2.84146 29.3596 2.85769C29.0945 2.85389 28.8313 2.90331 28.5856 3.00302C28.3399 3.10274 28.1167 3.25072 27.9292 3.43821C27.7417 3.62571 27.5937 3.84891 27.494 4.0946C27.3943 4.3403 27.3449 4.6035 27.3487 4.86863C27.3449 5.13223 27.3939 5.39393 27.4928 5.6383C27.5918 5.88266 27.7386 6.10476 27.9247 6.2915C28.1108 6.47825 28.3323 6.62586 28.5764 6.72564C28.8204 6.82543 29.0819 6.87536 29.3455 6.87251M20.3986 4.52289C21 4.52477 21.5775 4.28816 22.0047 3.86492C22.432 3.44169 22.6739 2.86635 22.6777 2.265C22.6767 1.96663 22.6171 1.67137 22.502 1.39607C22.387 1.12077 22.2189 0.870829 22.0072 0.660509C21.7956 0.450189 21.5446 0.283612 21.2686 0.170289C20.9926 0.0569671 20.697 -0.000881585 20.3986 4.64512e-05C20.1016 -0.0018705 19.8073 0.0555624 19.5328 0.168974C19.2583 0.282385 19.0092 0.449488 18.8002 0.660475C18.5912 0.871461 18.4264 1.12208 18.3156 1.39761C18.2048 1.67315 18.1501 1.96805 18.1548 2.265C18.1511 2.56136 18.2064 2.8555 18.3177 3.13021C18.4289 3.40492 18.5939 3.6547 18.8028 3.86493C19.0117 4.07516 19.2604 4.24163 19.5344 4.35461C19.8084 4.46758 20.1022 4.52479 20.3986 4.52289ZM11.0213 7.62749C11.3958 7.64643 11.7702 7.58901 12.1219 7.45874C12.4735 7.32846 12.795 7.12804 13.0667 6.86967C13.3385 6.6113 13.5549 6.30036 13.7028 5.95576C13.8506 5.61116 13.9269 5.24009 13.9269 4.8651C13.9269 4.49012 13.8506 4.11905 13.7028 3.77445C13.5549 3.42984 13.3385 3.11891 13.0667 2.86053C12.795 2.60216 12.4735 2.40174 12.1219 2.27147C11.7702 2.14119 11.3958 2.08378 11.0213 2.10271C10.6583 2.09984 10.2983 2.16959 9.96263 2.30784C9.62694 2.44609 9.32227 2.65006 9.06655 2.90776C8.81083 3.16545 8.6092 3.47167 8.47353 3.80842C8.33786 4.14516 8.27089 4.50563 8.27654 4.86863C8.27184 5.23104 8.33951 5.59075 8.47561 5.92667C8.6117 6.26259 8.81347 6.56797 9.0691 6.82491C9.32473 7.08186 9.62907 7.28519 9.96429 7.42301C10.2995 7.56082 10.6589 7.63034 11.0213 7.62749ZM4.2335 13.7238C4.83701 13.7238 5.4158 13.4841 5.84255 13.0573C6.26929 12.6306 6.50904 12.0518 6.50904 11.4483C6.50904 10.8448 6.26929 10.266 5.84255 9.83923C5.4158 9.41248 4.83701 9.17274 4.2335 9.17274C3.65558 9.20504 3.11195 9.45737 2.71424 9.87792C2.31653 10.2985 2.09492 10.8553 2.09492 11.4342C2.09492 12.013 2.31653 12.5698 2.71424 12.9904C3.11195 13.411 3.65558 13.6633 4.2335 13.6956M1.99678 22.579C2.53011 22.579 3.0416 22.3671 3.41872 21.99C3.79585 21.6129 4.00771 21.1014 4.00771 20.5681C4.00771 20.0347 3.79585 19.5232 3.41872 19.1461C3.0416 18.769 2.53011 18.5571 1.99678 18.5571C1.46344 18.5571 0.951953 18.769 0.57483 19.1461C0.197706 19.5232 -0.0141602 20.0347 -0.0141602 20.5681C-0.0141602 21.1014 0.197706 21.6129 0.57483 21.99C0.951953 22.3671 1.46344 22.579 1.99678 22.579ZM4.53691 31.3989C5.00474 31.3989 5.45342 31.213 5.78423 30.8822C6.11504 30.5514 6.30089 30.1027 6.30089 29.6349C6.30089 29.1671 6.11504 28.7184 5.78423 28.3876C5.45342 28.0568 5.00474 27.8709 4.53691 27.8709C4.06907 27.8709 3.6204 28.0568 3.28958 28.3876C2.95877 28.7184 2.77293 29.1671 2.77293 29.6349C2.77293 30.1027 2.95877 30.5514 3.28958 30.8822C3.6204 31.213 4.06907 31.3989 4.53691 31.3989ZM11.0284 37.8127C11.4288 37.8127 11.8129 37.6536 12.0961 37.3705C12.3792 37.0873 12.5383 36.7032 12.5383 36.3027C12.5383 35.9023 12.3792 35.5182 12.0961 35.235C11.8129 34.9519 11.4288 34.7928 11.0284 34.7928C10.6279 34.7928 10.2438 34.9519 9.96064 35.235C9.67747 35.5182 9.51838 35.9023 9.51838 36.3027C9.51838 36.7032 9.67747 37.0873 9.96064 37.3705C10.2438 37.6536 10.6279 37.8127 11.0284 37.8127ZM23.5526 27.1018C23.8857 27.1018 24.2052 26.9695 24.4407 26.734C24.6762 26.4984 24.8086 26.179 24.8086 25.8459C24.8086 25.5128 24.6762 25.1933 24.4407 24.9578C24.2052 24.7222 23.8857 24.5899 23.5526 24.5899C23.2195 24.5899 22.9 24.7222 22.6645 24.9578C22.429 25.1933 22.2967 25.5128 22.2967 25.8459C22.2967 26.179 22.429 26.4984 22.6645 26.734C22.9 26.9695 23.2195 27.1018 23.5526 27.1018ZM26.6149 22.071C26.8214 22.0851 27.0286 22.0566 27.2236 21.9873C27.4186 21.918 27.5973 21.8094 27.7486 21.6681C27.8999 21.5268 28.0205 21.356 28.103 21.1661C28.1854 20.9763 28.228 20.7715 28.228 20.5645C28.228 20.3575 28.1854 20.1528 28.103 19.9629C28.0205 19.7731 27.8999 19.6022 27.7486 19.4609C27.5973 19.3197 27.4186 19.211 27.2236 19.1417C27.0286 19.0724 26.8214 19.0439 26.6149 19.0581C26.2332 19.0842 25.8756 19.2543 25.6145 19.5339C25.3533 19.8136 25.2081 20.1819 25.2081 20.5645C25.2081 20.9471 25.3533 21.3155 25.6145 21.5951C25.8756 21.8747 26.2332 22.0448 26.6149 22.071ZM23.5455 16.9978C24.0134 16.9978 24.4621 16.8119 24.7929 16.4811C25.1237 16.1503 25.3095 15.7016 25.3095 15.2338C25.3095 14.7659 25.1237 14.3173 24.7929 13.9865C24.4621 13.6556 24.0134 13.4698 23.5455 13.4698C23.0777 13.4698 22.629 13.6556 22.2982 13.9865C21.9674 14.3173 21.7816 14.7659 21.7816 15.2338C21.7816 15.7016 21.9674 16.1503 22.2982 16.4811C22.629 16.8119 23.0777 16.9978 23.5455 16.9978ZM17.3928 17.2518C17.9261 17.2518 18.4376 17.0399 18.8147 16.6628C19.1919 16.2857 19.4037 15.7742 19.4037 15.2408C19.4037 14.7075 19.1919 14.196 18.8147 13.8189C18.4376 13.4418 17.9261 13.2299 17.3928 13.2299C16.8595 13.2299 16.348 13.4418 15.9708 13.8189C15.5937 14.196 15.3819 14.7075 15.3819 15.2408C15.3819 15.7742 15.5937 16.2857 15.9708 16.6628C16.348 17.0399 16.8595 17.2518 17.3928 17.2518ZM20.4057 22.3179C20.8735 22.3179 21.3222 22.1321 21.653 21.8013C21.9838 21.4704 22.1696 21.0218 22.1696 20.5539C22.1696 20.0861 21.9838 19.6374 21.653 19.3066C21.3222 18.9758 20.8735 18.79 20.4057 18.79C19.9378 18.79 19.4892 18.9758 19.1583 19.3066C18.8275 19.6374 18.6417 20.0861 18.6417 20.5539C18.6417 21.0218 18.8275 21.4704 19.1583 21.8013C19.4892 22.1321 19.9378 22.3179 20.4057 22.3179ZM14.387 22.3179C14.8548 22.3179 15.3035 22.1321 15.6343 21.8013C15.9651 21.4704 16.1509 21.0218 16.1509 20.5539C16.1509 20.0861 15.9651 19.6374 15.6343 19.3066C15.3035 18.9758 14.8548 18.79 14.387 18.79C13.9191 18.79 13.4705 18.9758 13.1396 19.3066C12.8088 19.6374 12.623 20.0861 12.623 20.5539C12.623 21.0218 12.8088 21.4704 13.1396 21.8013C13.4705 22.1321 13.9191 22.3179 14.387 22.3179ZM17.4563 27.4123C17.6628 27.4264 17.87 27.398 18.065 27.3287C18.2601 27.2594 18.4388 27.1507 18.59 27.0094C18.7413 26.8682 18.8619 26.6973 18.9444 26.5075C19.0269 26.3176 19.0694 26.1128 19.0694 25.9059C19.0694 25.6989 19.0269 25.4941 18.9444 25.3043C18.8619 25.1144 18.7413 24.9435 18.59 24.8023C18.4388 24.661 18.2601 24.5523 18.065 24.483C17.87 24.4137 17.6628 24.3853 17.4563 24.3994C17.0746 24.4256 16.717 24.5956 16.4559 24.8753C16.1947 25.1549 16.0495 25.5232 16.0495 25.9059C16.0495 26.2885 16.1947 26.6568 16.4559 26.9364C16.717 27.2161 17.0746 27.3861 17.4563 27.4123ZM17.2093 33.4663C17.5424 33.4663 17.8619 33.3339 18.0974 33.0984C18.333 32.8629 18.4653 32.5434 18.4653 32.2103C18.4653 31.8772 18.333 31.5578 18.0974 31.3222C17.8619 31.0867 17.5424 30.9544 17.2093 30.9544C16.8762 30.9544 16.5568 31.0867 16.3212 31.3222C16.0857 31.5578 15.9534 31.8772 15.9534 32.2103C15.9534 32.5434 16.0857 32.8629 16.3212 33.0984C16.5568 33.3339 16.8762 33.4663 17.2093 33.4663ZM12.0515 30.5522C12.258 30.5663 12.4652 30.5378 12.6602 30.4685C12.8552 30.3992 13.0339 30.2906 13.1852 30.1493C13.3365 30.008 13.4571 29.8372 13.5396 29.6473C13.622 29.4575 13.6646 29.2527 13.6646 29.0457C13.6646 28.8388 13.622 28.634 13.5396 28.4441C13.4571 28.2543 13.3365 28.0834 13.1852 27.9422C13.0339 27.8009 12.8552 27.6922 12.6602 27.6229C12.4652 27.5536 12.258 27.5252 12.0515 27.5393C11.6697 27.5654 11.3122 27.7355 11.051 28.0151C10.7899 28.2948 10.6447 28.6631 10.6447 29.0457C10.6447 29.4283 10.7899 29.7967 11.051 30.0763C11.3122 30.356 11.6697 30.526 12.0515 30.5522ZM8.78457 25.4014C9.25241 25.4014 9.70108 25.2155 10.0319 24.8847C10.3627 24.5539 10.5485 24.1052 10.5485 23.6374C10.5485 23.1695 10.3627 22.7209 10.0319 22.3901C9.70108 22.0592 9.25241 21.8734 8.78457 21.8734C8.31673 21.8734 7.86806 22.0592 7.53725 22.3901C7.20644 22.7209 7.02059 23.1695 7.02059 23.6374C7.02059 24.1052 7.20644 24.5539 7.53725 24.8847C7.86806 25.2155 8.31673 25.4014 8.78457 25.4014ZM8.78457 19.3968C9.0582 19.413 9.33225 19.3731 9.5899 19.2796C9.84756 19.186 10.0834 19.0408 10.2828 18.8528C10.4823 18.6648 10.6413 18.438 10.7499 18.1863C10.8585 17.9347 10.9146 17.6635 10.9146 17.3894C10.9146 17.1153 10.8585 16.844 10.7499 16.5924C10.6413 16.3407 10.4823 16.1139 10.2828 15.9259C10.0834 15.7379 9.84756 15.5927 9.5899 15.4991C9.33225 15.4056 9.0582 15.3657 8.78457 15.3819C8.27275 15.4123 7.79185 15.637 7.4402 16.0102C7.08855 16.3833 6.8927 16.8766 6.8927 17.3894C6.8927 17.9021 7.08855 18.3954 7.4402 18.7686C7.79185 19.1417 8.27275 19.3664 8.78457 19.3968ZM11.6775 14.3588C12.2763 14.3588 12.8506 14.121 13.2741 13.6975C13.6975 13.2741 13.9354 12.6998 13.9354 12.1009C13.9354 11.5021 13.6975 10.9278 13.2741 10.5044C12.8506 10.0809 12.2763 9.84305 11.6775 9.84305C11.0787 9.84305 10.5044 10.0809 10.0809 10.5044C9.65749 10.9278 9.4196 11.5021 9.4196 12.1009C9.4196 12.6998 9.65749 13.2741 10.0809 13.6975C10.5044 14.121 11.0787 14.3588 11.6775 14.3588ZM17.2305 11.2895C17.5381 11.3067 17.846 11.261 18.1353 11.1551C18.4246 11.0492 18.6893 10.8854 18.9131 10.6737C19.137 10.462 19.3153 10.2069 19.4371 9.92397C19.559 9.64102 19.6218 9.33617 19.6218 9.02809C19.6218 8.72001 19.559 8.41517 19.4371 8.13222C19.3153 7.84926 19.137 7.59414 18.9131 7.38246C18.6893 7.17078 18.4246 7.00699 18.1353 6.90111C17.846 6.79523 17.5381 6.74948 17.2305 6.76667C16.6526 6.79897 16.1089 7.0513 15.7112 7.47185C15.3135 7.89241 15.0919 8.44927 15.0919 9.02809C15.0919 9.60692 15.3135 10.1638 15.7112 10.5843C16.1089 11.0049 16.6526 11.2572 17.2305 11.2895ZM23.5808 11.0355C23.8545 11.0517 24.1285 11.0119 24.3862 10.9183C24.6438 10.8248 24.8796 10.6795 25.0791 10.4915C25.2786 10.3035 25.4375 10.0767 25.5462 9.82508C25.6548 9.57342 25.7108 9.3022 25.7108 9.02809C25.7108 8.75399 25.6548 8.48277 25.5462 8.23111C25.4375 7.97945 25.2786 7.75266 25.0791 7.56466C24.8796 7.37666 24.6438 7.23143 24.3862 7.13788C24.1285 7.04434 23.8545 7.00446 23.5808 7.02069C23.069 7.05104 22.5881 7.27576 22.2365 7.64889C21.8848 8.02201 21.689 8.51537 21.689 9.02809C21.689 9.54082 21.8848 10.0342 22.2365 10.4073C22.5881 10.7804 23.069 11.0051 23.5808 11.0355ZM29.2679 13.8085C29.7357 13.8085 30.1844 13.6226 30.5152 13.2918C30.846 12.961 31.0319 12.5123 31.0319 12.0445C31.0319 11.5767 30.846 11.128 30.5152 10.7972C30.1844 10.4664 29.7357 10.2805 29.2679 10.2805C28.8001 10.2805 28.3514 10.4664 28.0206 10.7972C27.6898 11.128 27.5039 11.5767 27.5039 12.0445C27.5039 12.5123 27.6898 12.961 28.0206 13.2918C28.3514 13.6226 28.8001 13.8085 29.2679 13.8085ZM31.9915 18.8393C32.198 18.8535 32.4052 18.825 32.6002 18.7557C32.7953 18.6864 32.974 18.5778 33.1252 18.4365C33.2765 18.2952 33.3971 18.1244 33.4796 17.9345C33.5621 17.7447 33.6046 17.5399 33.6046 17.3329C33.6046 17.1259 33.5621 16.9212 33.4796 16.7313C33.3971 16.5415 33.2765 16.3706 33.1252 16.2293C32.974 16.0881 32.7953 15.9794 32.6002 15.9101C32.4052 15.8408 32.198 15.8123 31.9915 15.8265C31.6098 15.8526 31.2522 16.0227 30.9911 16.3023C30.7299 16.582 30.5847 16.9503 30.5847 17.3329C30.5847 17.7155 30.7299 18.0839 30.9911 18.3635C31.2522 18.6431 31.6098 18.8132 31.9915 18.8393ZM31.935 24.8792C32.2681 24.8792 32.5876 24.7469 32.8231 24.5114C33.0587 24.2758 33.191 23.9564 33.191 23.6233C33.191 23.2902 33.0587 22.9707 32.8231 22.7352C32.5876 22.4996 32.2681 22.3673 31.935 22.3673C31.6019 22.3673 31.2825 22.4996 31.0469 22.7352C30.8114 22.9707 30.6791 23.2902 30.6791 23.6233C30.6791 23.9564 30.8114 24.2758 31.0469 24.5114C31.2825 24.7469 31.6019 24.8792 31.935 24.8792ZM28.8445 30.0441C28.9837 30.0558 29.1237 30.0385 29.2558 29.9932C29.3878 29.948 29.5091 29.8759 29.6119 29.7814C29.7146 29.6868 29.7966 29.5721 29.8528 29.4442C29.9089 29.3164 29.9378 29.1783 29.9378 29.0387C29.9378 28.8991 29.9089 28.761 29.8528 28.6331C29.7966 28.5053 29.7146 28.3905 29.6119 28.296C29.5091 28.2015 29.3878 28.1293 29.2558 28.0841C29.1237 28.0389 28.9837 28.0215 28.8445 28.0332C28.5924 28.0543 28.3574 28.1694 28.1862 28.3557C28.0149 28.5419 27.9199 28.7857 27.9199 29.0387C27.9199 29.2917 28.0149 29.5355 28.1862 29.7217C28.3574 29.9079 28.5924 30.023 28.8445 30.0441ZM23.5667 33.2123C23.7058 33.2239 23.8459 33.2066 23.9779 33.1614C24.11 33.1161 24.2313 33.044 24.334 32.9495C24.4368 32.855 24.5188 32.7402 24.5749 32.6123C24.631 32.4845 24.66 32.3464 24.66 32.2068C24.66 32.0672 24.631 31.9291 24.5749 31.8013C24.5188 31.6734 24.4368 31.5586 24.334 31.4641C24.2313 31.3696 24.11 31.2975 23.9779 31.2522C23.8459 31.207 23.7058 31.1897 23.5667 31.2013C23.3146 31.2225 23.0796 31.3375 22.9083 31.5238C22.7371 31.71 22.642 31.9538 22.642 32.2068C22.642 32.4598 22.7371 32.7036 22.9083 32.8898C23.0796 33.076 23.3146 33.1911 23.5667 33.2123Z" fill="#4D008C"/>
</g>
<defs>
<clipPath id="clip0_191_2183">
<rect width="40" height="40" fill="white"/>
</clipPath>
</defs>
</svg>
